# xmcd
#
# Track frame offsets: 
#        150
#        16881
#        34631
#        55739
#        75959
#        95173
#        121765
#        133306
#        138198
#        159545
#        164755
#        183722
#        199753
#        213571
#        218381
#
# Disc length: 3426 seconds
#
# Revision: 0
# Processed by: cddbd v1.5.2PL0 Copyright (c) Steve Scherf et al.
# Submitted via: ExactAudioCopy v0.95b3
#
DISCID=ce0d600f
DTITLE=The Alan Parsons Project  - Tales Of Mystery And Imagination (D
DTITLE=eluxe Edition) Disc 1  FLAC
DYEAR=1900
DGENRE=
TTITLE0=Alan Parsons Project - A Dream Within A Dream
TTITLE1=Alan Parsons Project - The Raven
TTITLE2=Alan Parsons Project - The Tell-Tale Heart
TTITLE3=Alan Parsons Project - The Cask Of Amontillado
TTITLE4=Alan Parsons Project - (The System Of)Doctor Tarr And Professo
TTITLE4=r Fether
TTITLE5=Alan Parsons Project - The Fall Of The House Of Usher, Prelude
TTITLE6=Alan Parsons Project - The Fall Of The House Of Usher, Arrival
TTITLE7=Alan Parsons Project - The Fall Of The House Of Usher, Interme
TTITLE7=zzo
TTITLE8=Alan Parsons Project - The Fall Of The House Of Usher, Pavane
TTITLE9=Alan Parsons Project - The Fall Of The House Of Usher, Fall
TTITLE10=Alan Parsons Project - To One In Paradise
TTITLE11=Alan Parsons Project - The Raven - Original Demo
TTITLE12=Alan Parsons Project - Edgar - Original Demo
TTITLE13=Alan Parsons Project - Orson Welles Dialogue
TTITLE14=Alan Parsons Project - Interview With Alan Parsons And Eric
EXTD=
EXTT0=
EXTT1=
EXTT2=
EXTT3=
EXTT4=
EXTT5=
EXTT6=
EXTT7=
EXTT8=
EXTT9=
EXTT10=
EXTT11=
EXTT12=
EXTT13=
EXTT14=
PLAYORDER=
